<?xml version="1.0" encoding="iso-8859-1"?>
<!-- Generator: Adobe Illustrator 19.0.0, SVG Export Plug-In . SVG Version: 6.00 Build 0)  -->
<svg version="1.1" id="Capa_1" xmlns="http://www.w3.org/2000/svg" xmlns:xlink="http://www.w3.org/1999/xlink" x="0px" y="0px"
	 viewBox="0 0 512 512" style="enable-background:new 0 0 512 512;" xml:space="preserve">
<g>
	<g transform="translate(1 1)">
		<g>
			<path style="fill:#E91E63;" d="M161.133,485.229v0.171c0,0.427-0.085,0.768-0.085,1.109c-0.043,0.687-0.129,1.371-0.256,2.048
				c-0.102,0.522-0.245,1.036-0.427,1.536c-0.101,0.55-0.244,1.092-0.426,1.621c-0.255,0.512-0.511,0.939-0.768,1.451
				c-0.257,0.512-0.513,1.024-0.769,1.451c-0.341,0.512-0.683,0.939-1.023,1.365c-0.32,0.416-0.663,0.815-1.025,1.195
				c-0.511,0.512-1.023,0.939-1.535,1.365c-0.265,0.277-0.551,0.534-0.854,0.768c-0.023,0-0.045,0.008-0.06,0.025
				c-0.016,0.016-0.025,0.038-0.024,0.061c-1.325,0.868-2.76,1.557-4.267,2.048c-0.298,0.151-0.613,0.266-0.939,0.341
				c-1.467,0.441-2.99,0.671-4.523,0.683H92.867c-9.426,0-17.067-7.641-17.067-17.067s7.641-17.067,17.067-17.067h18.005
				l-23.381-32.768c-2.637-3.773-3.679-8.434-2.901-12.971c0.856-4.534,3.501-8.532,7.339-11.093l45.483-30.293
				c5.566,10.131,13.111,19.04,22.188,26.197l-34.048,22.699l32.426,45.397c0,0.085,0.085,0.085,0.085,0.171
				c0.363,0.54,0.677,1.111,0.939,1.707l0.769,1.28c0.17,0.427,0.255,0.939,0.426,1.451c0.221,0.553,0.392,1.124,0.511,1.707
				c0.099,0.391,0.156,0.792,0.171,1.195C161.009,483.744,161.095,484.485,161.133,485.229z"/>
			<path style="fill:#E91E63;" d="M434.2,485.4c-0.028,9.414-7.652,17.039-17.067,17.067h-51.285
				c-1.532-0.012-3.055-0.242-4.523-0.683c-0.325-0.076-0.641-0.19-0.939-0.341c-1.507-0.491-2.941-1.18-4.267-2.048
				c0.001-0.023-0.008-0.045-0.024-0.061c-0.016-0.016-0.038-0.025-0.06-0.025c-0.303-0.234-0.589-0.491-0.854-0.768
				c-0.513-0.427-1.024-0.853-1.535-1.365c-0.362-0.38-0.705-0.779-1.025-1.195c-0.341-0.427-0.682-0.853-1.023-1.365
				c-0.256-0.427-0.513-0.939-0.769-1.451c-0.256-0.512-0.513-0.939-0.768-1.451c-0.182-0.529-0.325-1.071-0.426-1.621
				c-0.182-0.5-0.324-1.014-0.427-1.536c-0.127-0.677-0.213-1.361-0.256-2.048c0-0.341-0.085-0.683-0.085-1.109v-0.171
				c0.038-0.744,0.124-1.485,0.256-2.219c0.015-0.403,0.072-0.804,0.171-1.195c0.12-0.583,0.291-1.154,0.511-1.707
				c0.171-0.512,0.256-1.024,0.426-1.451l0.769-1.28c0.262-0.596,0.576-1.167,0.939-1.707c0-0.085,0.085-0.085,0.085-0.171
				l32.426-45.397l-34.048-22.699c9.076-7.158,16.621-16.067,22.187-26.197l45.483,30.293c3.837,2.562,6.482,6.56,7.339,11.093
				c0.778,4.537-0.265,9.198-2.901,12.971l-23.381,32.768h18.005C426.547,468.361,434.172,475.986,434.2,485.4z"/>
		</g>
		<g>
			<path style="fill:#00BCD4;" d="M402.285,210.029c15.104,10.325,39.851,33.195,29.44,68.096c0,0-27.733-30.293-48.725-27.221H127
				c-20.992-3.072-48.725,27.221-48.725,27.221c-10.411-34.901,14.336-57.771,29.44-68.096H402.285z"/>
			<path style="fill:#00BCD4;" d="M383.171,131.523c5.973-22.955,54.699-24.576,54.699-24.576
				c-27.819-43.008-82.603-17.749-82.603-17.749l-4.352-3.157c-0.939-21.76,35.755-44.373,35.755-44.373
				c-45.397-23.552-80.469,25.6-80.469,25.6c-17.067-17.067,8.533-59.733,8.533-59.733c-51.2,0-59.733,59.733-59.733,59.733
				s-8.533-59.733-59.733-59.733c0,0,25.6,42.667,8.533,59.733c0,0-35.072-49.152-80.469-25.6c0,0,36.693,22.613,35.755,44.373
				l-4.352,3.157c0,0-54.784-25.259-82.603,17.749c0,0,48.725,1.621,54.699,24.576H383.171z"/>
		</g>
		<path style="fill:#2E7D32;" d="M383,233.496v106.837c0.017,14.283-3.563,28.34-10.411,40.875
			c-5.566,10.131-13.111,19.04-22.188,26.197c-15.021,11.852-33.602,18.286-52.735,18.261h-85.333
			c-19.133,0.025-37.715-6.409-52.735-18.261c-9.076-7.158-16.621-16.067-22.187-26.197c-6.847-12.535-10.428-26.592-10.411-40.875
			V233.496l3.328-104.533c10.558-36.524,43.986-61.673,82.005-61.696h85.333c38.019,0.023,71.447,25.172,82.005,61.696L383,233.496z
			"/>
		<path style="fill:#4CAF50;" d="M348.867,251.798v96.663c0.055,12.724-2.545,25.32-7.634,36.982
			c-3.872,8.861-9.393,16.905-16.271,23.702c-10.216,10.38-24.11,16.316-38.673,16.522h-62.578
			c-14.562-0.206-28.457-6.142-38.673-16.522c-6.878-6.798-12.399-14.841-16.271-23.702c-5.089-11.662-7.689-24.258-7.634-36.982
			v-96.663l2.441-94.578c7.51-32.195,31.601-55.82,60.137-55.82h62.578c28.535,0,52.627,23.625,60.137,55.82L348.867,251.798z"/>
		<path style="fill:#E91E63;" d="M229.4,182.467c0.041,11.895-3.303,23.556-9.643,33.621c-6.314-35.62-36.638-61.998-72.789-63.317
			c-0.96-0.144-1.932-0.201-2.902-0.171c-14.058-0.006-27.846,3.862-39.85,11.179c9.249-30.315,39.299-49.291,70.646-44.611
			C206.21,123.848,229.408,150.772,229.4,182.467z"/>
		<path style="fill:#E6E7E8;" d="M219.757,216.088c-15.014,24.349-44.375,35.762-71.892,27.945
			c-27.517-7.817-46.494-32.961-46.465-61.567c-0.029-6.337,0.921-12.641,2.817-18.688c12.004-7.317,25.792-11.185,39.85-11.179
			c0.971-0.031,1.942,0.027,2.902,0.171c-7.296,6.434-11.463,15.702-11.435,25.429c-0.018,18.315,14.435,33.374,32.735,34.108
			s33.912-13.119,35.361-31.377C211.913,191.084,217.464,203.186,219.757,216.088z"/>
		<path style="fill:#2C2F38;" d="M203.629,180.931c-1.207,15.301-12.487,27.91-27.559,30.806
			c-15.072,2.897-30.223-4.633-37.015-18.396c-6.792-13.763-3.553-30.369,7.914-40.57
			C169.042,153.512,189.709,163.784,203.629,180.931z"/>
		<path style="fill:#E91E63;" d="M405.783,163.779c-12.004-7.317-25.792-11.185-39.85-11.179c-0.971-0.031-1.942,0.027-2.902,0.171
			c-36.151,1.319-66.475,27.698-72.789,63.317c-6.34-10.065-9.684-21.726-9.643-33.621c-0.008-31.695,23.189-58.619,54.537-63.299
			C366.484,114.488,396.534,133.463,405.783,163.779z"/>
		<path style="fill:#E6E7E8;" d="M408.6,182.467c0.029,28.606-18.948,53.75-46.465,61.567c-27.517,7.817-56.878-3.596-71.892-27.945
			c2.293-12.902,7.845-25.004,16.128-35.157c1.207,15.301,12.487,27.91,27.559,30.806c15.072,2.897,30.223-4.633,37.015-18.396
			c6.792-13.763,3.553-30.369-7.914-40.57c0.96-0.144,1.932-0.201,2.902-0.171c14.058-0.006,27.846,3.862,39.85,11.179
			C407.679,169.826,408.629,176.129,408.6,182.467z"/>
		<path style="fill:#2C2F38;" d="M374.467,178.2c0.018,18.315-14.435,33.374-32.735,34.108s-33.912-13.119-35.361-31.377
			c13.92-17.146,34.588-27.418,56.66-28.16C370.327,159.205,374.494,168.472,374.467,178.2z"/>
		<path style="fill:#E91E63;" d="M161.133,289.133h187.733c18.851,0,34.133,15.282,34.133,34.133l0,0
			c0,18.851-15.282,34.133-34.133,34.133H161.133c-18.851,0-34.133-15.282-34.133-34.133l0,0
			C127,304.415,142.282,289.133,161.133,289.133z"/>
		<path style="fill:#894B9D;" d="M263.533,391.533v34.133h-17.067v-34.133c0-4.713,3.821-8.533,8.533-8.533
			C259.713,383,263.533,386.821,263.533,391.533z"/>
	</g>
	<g>
		<path d="M362.498,78.719c7.56-11.732,17.702-21.579,29.652-28.79c2.612-1.616,4.156-4.509,4.042-7.579
			c-0.114-3.069-1.867-5.841-4.592-7.259c-33.689-17.469-64.296-0.217-81.766,17.087c1.339-13.927,5.861-27.36,13.217-39.262
			c1.577-2.636,1.616-5.916,0.102-8.589c-1.514-2.673-4.347-4.326-7.419-4.328C289.55,0.216,266.032,16.064,256,40.25
			C245.968,16.064,222.45,0.216,196.267,0c-3.072,0.003-5.905,1.656-7.419,4.328c-1.514,2.673-1.475,5.952,0.102,8.588
			c7.357,11.903,11.879,25.339,13.217,39.269c-17.479-17.303-48.109-34.557-81.766-17.094c-2.725,1.418-4.478,4.189-4.592,7.259
			c-0.114,3.069,1.43,5.963,4.042,7.579c11.95,7.209,22.092,17.057,29.651,28.789c-23.631-7.438-61.722-9.146-83.534,24.595
			c-1.663,2.582-1.813,5.858-0.391,8.581c1.422,2.722,4.196,4.472,7.266,4.582c12.11,0.424,36.334,4.375,44.371,13.84
			c-21.559,19.738-29.022,50.564-18.877,77.978c-25.29,19.806-35.329,46.127-27.235,73.27c0.874,2.943,3.266,5.188,6.258,5.875
			c0.629,0.144,1.272,0.216,1.917,0.217c2.391-0.001,4.673-1.003,6.292-2.762c9.279-10.458,20.893-18.581,33.9-23.709v80.151
			c0.003,13.049,2.745,25.951,8.05,37.873l-39.333,26.198c-5.769,3.83-9.735,9.84-10.987,16.651
			c-1.252,6.811,0.316,13.838,4.346,19.47L95.3,460.8h-1.434c-14.138,0-25.6,11.462-25.6,25.6s11.462,25.6,25.6,25.6h51.283
			c2.216,0.001,4.421-0.311,6.55-0.925c0.722-0.174,1.427-0.411,2.108-0.708c2.045-0.712,3.993-1.674,5.8-2.867
			c0.349-0.231,0.68-0.487,0.992-0.767c0.35-0.292,0.667-0.579,0.967-0.87c0.6-0.504,1.2-1.029,1.825-1.654
			c0.603-0.625,1.174-1.282,1.708-1.967c0.574-0.714,1.111-1.456,1.608-2.225c0.383-0.625,0.767-1.362,1.333-2.483
			c0.042-0.079,0.467-0.867,0.508-0.95c0.199-0.397,0.369-0.807,0.508-1.229c0.208-0.654,0.417-1.392,0.575-2.096
			c0.184-0.515,0.326-1.045,0.425-1.583c0.226-0.92,0.371-1.859,0.433-2.804l0.075-0.879c0.033-0.326,0.1-1.439,0.1-1.764
			c-0.018-1.02-0.113-2.036-0.283-3.042c-0.032-0.521-0.107-1.038-0.225-1.546c-0.174-1.127-0.47-2.233-0.883-3.296
			c-0.1-0.383-0.467-1.571-0.617-1.938c-0.125-0.308-0.708-1.329-1.084-1.979c-0.329-0.692-0.7-1.364-1.108-2.012
			c-0.166-0.302-0.349-0.595-0.55-0.875l-27.3-38.225l21.792-14.529c15.573,10.704,34.028,16.427,52.925,16.412h85.333
			c18.897,0.015,37.352-5.708,52.925-16.412l21.792,14.529l-27.3,38.225c-0.201,0.28-0.384,0.573-0.55,0.875
			c-0.402,0.635-0.767,1.293-1.092,1.971c-0.217,0.371-0.5,0.837-0.5,0.837c-0.232,0.377-0.433,0.773-0.6,1.183
			c-0.15,0.367-0.583,1.754-0.683,2.138c-0.351,0.892-0.608,1.818-0.767,2.762c-0.145,0.635-0.239,1.28-0.283,1.929
			c-0.176,1.045-0.268,2.102-0.275,3.162c0,0.325,0.05,0.783,0.083,1.108c0,0.233,0.075,1.129,0.092,1.363
			c0.034,0.693,0.126,1.381,0.275,2.058c0.138,0.785,0.333,1.56,0.583,2.317c0.154,0.712,0.346,1.416,0.575,2.108
			c0.139,0.421,0.309,0.832,0.508,1.229l0.717,1.325c0.399,0.838,0.844,1.653,1.333,2.442c0.467,0.704,0.933,1.3,1.567,2.1
			c0.491,0.621,1.014,1.216,1.567,1.783c0.608,0.604,1.2,1.125,1.808,1.629c0.292,0.292,0.608,0.579,0.958,0.87
			c0.311,0.28,0.643,0.536,0.992,0.767c1.805,1.19,3.75,2.153,5.792,2.867c0.553,0.251,1.128,0.452,1.717,0.6
			c2.283,0.681,4.651,1.029,7.033,1.034h51.2c14.138,0,25.6-11.461,25.6-25.6s-11.462-25.6-25.6-25.6H416.7l13.783-19.312
			c3.943-5.668,5.492-12.664,4.308-19.467c-1.295-6.786-5.249-12.772-10.983-16.625l-39.325-26.19
			c5.305-11.922,8.047-24.824,8.05-37.873v-80.157c13.013,5.119,24.63,13.246,33.9,23.715c1.619,1.76,3.9,2.762,6.292,2.762
			c0.645,0,1.288-0.073,1.917-0.217c2.993-0.687,5.384-2.931,6.258-5.875c8.094-27.144-1.946-53.465-27.235-73.27
			c10.145-27.413,2.682-58.24-18.877-77.978c8.036-9.465,32.26-13.416,44.371-13.84c3.069-0.11,5.844-1.859,7.266-4.582
			c1.422-2.722,1.273-5.999-0.391-8.581C424.212,69.571,386.127,71.283,362.498,78.719z M160.383,479.017l-2.108,1.554l-3.933,1.434
			L160.383,479.017z M345.6,238.933c-18.008-0.014-34.886-8.781-45.254-23.505c1.076-4.87,2.681-9.608,4.784-14.131
			c11.422,18.894,35.408,25.896,55.201,16.114s28.799-33.091,20.726-53.64c6.445,1.361,12.656,3.656,18.438,6.813
			c4.025,16.513,0.228,33.959-10.295,47.305C378.676,231.235,362.596,238.997,345.6,238.933z M360.477,162.447
			c4.133,4.604,6.431,10.566,6.456,16.753c0.044,13.095-9.832,24.098-22.856,25.462c-13.024,1.364-24.966-7.354-27.635-20.174
			C327.859,171.907,343.564,164.047,360.477,162.447z M366.933,145.067c-32.157-0.015-61.585,18.069-76.1,46.763
			c-3.465-22.283,6.94-44.439,26.3-56.002c19.36-11.563,43.801-10.22,61.777,3.395l0.154,0.115c3.299,2.491,6.312,5.341,8.983,8.497
			C381.153,146.032,374.059,145.102,366.933,145.067z M345.6,110.933c-29.659-0.069-56.372,17.926-67.451,45.438
			c-11.079,27.512-4.292,58.998,17.137,79.502c21.429,20.505,53.184,25.897,80.18,13.615v40.862
			c-7.343-5.644-16.338-8.719-25.6-8.752H162.133c-9.262,0.033-18.257,3.107-25.6,8.752v-40.862
			c29.092,13.307,63.466,5.994,84.621-18.004c21.155-23.998,24.099-59.018,7.248-86.211s-49.522-40.143-80.427-31.879
			c14.011-22.66,38.717-36.494,65.358-36.595h85.333c26.642,0.101,51.348,13.935,65.358,36.595
			C358.015,111.784,351.822,110.956,345.6,110.933z M349.867,349.867H162.133c-14.138,0-25.6-11.462-25.6-25.6
			c0-14.138,11.462-25.6,25.6-25.6h187.733c14.138,0,25.6,11.462,25.6,25.6C375.467,338.405,364.005,349.867,349.867,349.867z
			 M132.935,139.338l0.154-0.115c17.95-13.746,42.468-15.159,61.879-3.566s29.791,33.85,26.199,56.172
			c-17.935-35.797-58.485-54.148-97.215-43.994C126.623,144.679,129.636,141.829,132.935,139.338z M151.523,162.447
			c16.913,1.599,32.618,9.46,44.035,22.04c-2.67,12.82-14.611,21.537-27.635,20.174c-13.024-1.364-22.901-12.366-22.856-25.461
			C145.092,173.013,147.389,167.051,151.523,162.447z M110.933,183.467c0.016-4.341,0.544-8.665,1.572-12.882
			c5.781-3.157,11.993-5.452,18.438-6.813c-8.115,20.558,0.884,43.904,20.698,53.697s43.826,2.762,55.229-16.171
			c2.104,4.522,3.708,9.261,4.784,14.131c-13.916,19.758-39.032,28.219-62.067,20.909S110.911,207.633,110.933,183.467z
			 M369.35,45.392c-9.583,7.39-17.397,16.825-22.872,27.617c-7.273-4.335-15.097-7.67-23.261-9.915
			C335.004,50.339,352.056,43.796,369.35,45.392z M300.717,19.358c-6.155,12.51-8.615,26.516-7.092,40.375h-26.921
			C270.4,47.194,279.573,26.274,300.717,19.358z M245.256,59.733h-26.882c1.524-13.849-0.93-27.846-7.075-40.35
			C232.302,26.328,241.516,47.204,245.256,59.733z M188.808,63.086c-8.173,2.244-16.006,5.582-23.287,9.922
			c-5.476-10.794-13.293-20.229-22.88-27.617C159.948,43.769,177.02,50.313,188.808,63.086z M90.408,101.213
			c16.4-13.2,37.596-10.58,50.433-7.146c-5.574,6.782-10.163,14.316-13.631,22.381C116.537,108.15,103.823,102.887,90.408,101.213
			L90.408,101.213z M85.35,261.679c1.073-15.064,8.66-28.911,20.778-37.923c3.741,5.559,8.229,10.576,13.338,14.912v5.057
			C106.767,246.749,95.034,252.924,85.35,261.679z M119.608,436.063l32.125,44.983c0.142,0.254,0.283,0.5,0.442,0.729
			c0.153,0.358,0.331,0.705,0.533,1.037l0.1-0.05c0.142,0.363,0.475,1.075,0.533,1.25c0,0.382,0.025,0.763,0.075,1.142
			c0.009,0.067,0.183,0.817,0.192,0.883c-0.033,0.313-0.092,1.087-0.092,1.434c-0.067,0.258-0.217,0.721-0.258,0.962
			c-0.091,0.284-0.15,0.578-0.175,0.875c-0.067,0.125-0.525,0.992-0.583,1.117l-1.15,1.692c-0.317,0.317-0.633,0.575-1.475,1.346
			v0.004c-0.622,0.364-1.281,0.661-1.967,0.883c-0.225,0.075-0.45,0.158-0.667,0.254c-0.705,0.214-1.438,0.324-2.175,0.329h-51.2
			c-4.713,0-8.533-3.82-8.533-8.533s3.821-8.533,8.533-8.533h18.008c3.195-0.002,6.122-1.788,7.585-4.628
			c1.463-2.84,1.218-6.26-0.635-8.863l-23.358-32.73c-1.316-1.884-1.851-4.205-1.492-6.475c0.435-2.273,1.762-4.277,3.683-5.567
			l38.166-25.418c3.229,4.724,6.881,9.144,10.909,13.207l-24.917,16.611c-1.922,1.282-3.242,3.289-3.658,5.561
			C117.742,431.838,118.265,434.182,119.608,436.063L119.608,436.063z M264.533,418.133v-25.6c0-4.713-3.821-8.533-8.533-8.533
			c-4.713,0-8.533,3.82-8.533,8.533v25.6h-34.133c-35.195-0.064-65.851-24.022-74.417-58.159c6.895,4.532,14.965,6.951,23.217,6.959
			h187.733c8.252-0.008,16.321-2.427,23.217-6.959c-8.565,34.137-39.222,58.096-74.417,58.159H264.533z M414.333,419.596
			c1.888,1.254,3.203,3.204,3.658,5.425c0.404,2.299-0.111,4.665-1.434,6.588l-23.383,32.767c-1.853,2.603-2.098,6.022-0.635,8.863
			c1.463,2.84,4.39,4.626,7.585,4.628h18.008c4.713,0,8.533,3.82,8.533,8.533s-3.82,8.533-8.533,8.533H366.85
			c-0.703-0.016-1.401-0.125-2.075-0.325c-0.225-0.096-0.458-0.183-0.683-0.258c-0.638-0.21-1.255-0.48-1.842-0.808
			c-0.203-0.209-0.417-0.406-0.642-0.592c-0.5-0.397-0.955-0.847-1.358-1.342l-1.233-2.1c-0.079-0.403-0.182-0.801-0.308-1.192
			l-0.225-1.167c0.009-0.421,0.009-1-0.017-1.237c0.082-0.415,0.126-0.836,0.133-1.258l0.325-0.908l0.367-0.933
			c0.2-0.333,0.592-1.05,0.75-1.408c0.083-0.125,0.167-0.254,0.242-0.388l32.108-44.954c1.343-1.88,1.866-4.224,1.45-6.497
			c-0.416-2.273-1.736-4.279-3.658-5.561l-24.917-16.611c4.028-4.063,7.68-8.484,10.909-13.207L414.333,419.596z M426.65,261.675
			c-9.684-8.755-21.417-14.928-34.117-17.952v-5.055c5.109-4.336,9.597-9.353,13.339-14.912
			C417.989,232.767,425.576,246.613,426.65,261.675z M384.789,116.446c-3.476-8.08-8.077-15.628-13.666-22.42
			c12.82-3.479,34.036-6.15,50.494,7.182C408.193,102.88,395.47,108.145,384.789,116.446L384.789,116.446z"/>
		<path d="M341.333,315.733H170.667c-4.713,0-8.533,3.821-8.533,8.533s3.821,8.533,8.533,8.533h170.667
			c4.713,0,8.533-3.82,8.533-8.533S346.046,315.733,341.333,315.733z"/>
		<path d="M232.9,241.434l-8.533,8.533c-2.188,2.149-3.055,5.307-2.27,8.271c0.785,2.965,3.1,5.28,6.065,6.065
			s6.122-0.082,8.271-2.27l8.533-8.533c3.281-3.341,3.256-8.701-0.054-12.012C241.601,238.177,236.241,238.153,232.9,241.434z"/>
		<path d="M267.033,241.434c-1.601,1.6-2.5,3.77-2.5,6.033s0.899,4.433,2.5,6.033l8.533,8.533c2.151,2.178,5.304,3.037,8.262,2.251
			c2.958-0.786,5.269-3.097,6.055-6.055c0.786-2.959-0.073-6.111-2.251-8.262l-8.533-8.533c-1.6-1.601-3.77-2.5-6.033-2.5
			S268.633,239.833,267.033,241.434z"/>
	</g>
</g>
<g>
</g>
<g>
</g>
<g>
</g>
<g>
</g>
<g>
</g>
<g>
</g>
<g>
</g>
<g>
</g>
<g>
</g>
<g>
</g>
<g>
</g>
<g>
</g>
<g>
</g>
<g>
</g>
<g>
</g>
</svg>
